<svg xmlns="http://www.w3.org/2000/svg" width="64pt" height="64pt" viewBox="0 0 64 64" style="isolation:isolate"><defs><clipPath id="a"><rect width="64" height="64"/></clipPath></defs><g clip-path="url(#a)"><path d=" M 61.859 50.552 L 61.859 50.552 C 62.166 51.474 61.605 53.032 60.607 54.03 L 54.277 60.36 C 52.78 61.858 49.968 62.435 48.002 61.648 L 45.077 60.479 C 28.694 53.925 10.072 35.304 3.519 18.92 L 2.349 15.996 C 1.563 14.03 2.14 11.218 3.637 9.721 L 9.967 3.391 C 10.965 2.392 12.524 1.831 13.445 2.139 L 13.445 2.139 C 18.513 3.828 23.999 9.313 25.688 14.381 L 25.688 14.381 C 25.995 15.302 25.434 16.861 24.436 17.859 L 20.819 21.476 C 19.82 22.474 19.523 24.31 20.154 25.572 L 21.097 27.459 C 23.938 33.141 30.857 40.06 36.539 42.901 L 38.425 43.844 C 39.688 44.475 41.523 44.177 42.521 43.179 L 46.139 39.562 C 47.137 38.564 48.695 38.003 49.617 38.31 L 49.617 38.31 C 54.684 39.999 60.17 45.485 61.859 50.552 Z "/><path d=" M 29.545 11.614 L 29.779 14.179 C 29.843 14.882 30.324 15.378 30.854 15.285 C 30.854 15.285 31.835 15.212 32.823 15.239 C 37.01 15.338 40.998 17.066 43.955 20.041 C 46.93 22.998 48.657 26.986 48.765 31.181 C 48.802 32.539 48.651 33.882 48.637 33.935 C 48.465 34.62 48.883 35.304 49.571 35.463 L 52.058 36.037 C 52.746 36.196 53.442 35.768 53.61 35.083 C 53.727 34.612 53.923 32.837 53.875 31.046 C 53.739 25.539 51.469 20.303 47.572 16.424 C 43.692 12.526 38.457 10.256 32.95 10.121 C 31.764 10.089 30.587 10.164 30.587 10.164 C 29.948 10.261 29.482 10.911 29.545 11.614 Z "/><path fill-rule="evenodd" d=" M 28.806 3.482 L 29.038 6.028 C 29.102 6.731 29.671 7.235 30.309 7.152 C 30.309 7.152 31.476 7.09 32.642 7.118 C 39.017 7.29 45.067 9.904 49.552 14.425 L 49.57 14.443 L 49.57 14.443 C 49.561 14.434 49.561 14.434 49.552 14.425 C 49.561 14.434 49.561 14.434 49.561 14.434 L 49.561 14.434 L 49.57 14.443 C 54.092 18.928 56.714 24.987 56.877 31.353 C 56.923 33.257 56.729 35.162 56.59 35.77 C 56.433 36.459 56.864 37.146 57.552 37.305 L 60.047 37.881 C 60.735 38.039 61.42 37.609 61.577 36.921 C 61.811 35.897 62.047 33.563 61.995 31.227 C 61.796 23.54 58.64 16.225 53.178 10.817 C 53.178 10.817 53.178 10.817 53.169 10.808 L 53.169 10.808 L 53.178 10.817 C 47.771 5.355 40.455 2.199 32.778 2.009 C 31.408 1.976 30.042 2.043 29.96 2.053 C 29.259 2.139 28.742 2.779 28.806 3.482 Z  M 53.169 10.808 C 53.178 10.817 53.178 10.817 53.178 10.817 L 53.178 10.817 L 53.169 10.808 L 53.169 10.808 Z "/></g></svg>