<?xml version="1.0" encoding="utf-8"?>
<!-- Svg Vector Icons : http://www.onlinewebfonts.com/icon -->
<!DOCTYPE svg PUBLIC "-//W3C//DTD SVG 1.1//EN" "http://www.w3.org/Graphics/SVG/1.1/DTD/svg11.dtd">
<svg version="1.1" xmlns="http://www.w3.org/2000/svg" xmlns:xlink="http://www.w3.org/1999/xlink" x="0px" y="0px" viewBox="0 0 1000 1000" enable-background="new 0 0 1000 1000" xml:space="preserve">
<metadata> Svg Vector Icons : http://www.onlinewebfonts.com/icon </metadata>
<g><path d="M500,10c-196.8,0-356.3,159.5-356.3,356.3c0,38.3,6.1,75.3,17.3,109.9c8.2,25.2,19.1,49.2,32.4,71.7L500,990l306.6-442.2c13.3-22.4,24.2-46.4,32.4-71.7c11.2-34.6,17.3-71.5,17.3-109.9C856.3,169.5,696.8,10,500,10z M500,533c-93.9,0-170-76.1-170-170c0-93.9,76.1-170,170-170s170,76.1,170,170C670,456.9,593.9,533,500,533z"/></g>
</svg>