<svg width="64" height="9" viewBox="0 0 64 9" fill="none" xmlns="http://www.w3.org/2000/svg">
<path d="M0 6.55689L1.18206 9L1.64804 8.93096L2.86128 8.91316L4.34319 8.80157L5.69914 8.54669L5.91113 8.48829L6.15249 8.26359L6.03066 7.52586C6.01245 7.43858 5.96695 7.22039 5.89414 6.87128L6.23415 6.65895L6.85546 6.5669C7.13537 6.88532 7.28863 7.15953 7.31525 7.38952C7.43563 7.6596 7.82536 7.73682 8.48444 7.62117C8.20591 7.1046 8.05891 6.60453 8.04346 6.12096C8.13997 5.76476 8.47157 5.40972 9.03827 5.05584L10.7177 6.96638L11.0261 5.2202C11.0486 6.04462 11.2704 6.59658 11.6917 6.87607C12.2725 7.2039 12.8357 7.34539 13.3815 7.30052C14.1147 7.33584 14.7689 7.24791 15.344 7.03674L16.7734 6.3661L17.2352 6.8915L17.8545 7.09667L19.2777 7.31769L21.0115 7.49268L22.506 7.59516L27.6549 7.56109L34.8084 7.311L42.8813 6.70876C43.8412 6.60253 44.6458 6.51931 45.2951 6.4591C46.0102 6.40714 46.6077 6.3546 47.0877 6.30148C47.9818 6.187 49.2762 5.99522 50.9708 5.72616C51.865 5.61168 52.5899 5.50428 53.1454 5.40398C53.7387 5.28008 54.1907 5.19513 54.5013 5.1491C54.812 5.10307 55.25 5.00219 55.8153 4.84646C56.4184 4.66713 57.1439 4.46066 57.9919 4.22706C59.1506 3.94743 60.1119 3.64304 60.8759 3.31391C61.6399 2.98478 62.3619 2.60788 63.0419 2.18323L63.936 1.40295C64.0228 1.10218 64.0213 0.634532 63.9317 0L55.5587 1.15955L53.7641 1.61438L51.9401 2.23552L50.1728 2.82127C49.9279 2.87554 49.6831 2.92982 49.4382 2.9841C49.1933 3.03837 48.9204 3.06081 48.6196 3.0514C48.3747 3.10567 48.0738 3.09627 47.717 3.02317C47.3979 2.92648 47.06 2.8416 46.7031 2.7685C46.3463 2.69541 45.9705 2.63411 45.5759 2.58461C45.2191 2.51151 44.8335 2.50565 44.4193 2.56702C44.2402 2.62955 43.8778 2.68324 43.332 2.72811C42.8521 2.78123 42.405 2.83847 41.9908 2.89984L38.5736 3.40612L34.7198 3.81514L31.0361 4.118L27.8476 4.18551C27.3872 4.12776 26.9737 4.09005 26.6071 4.07239C26.3062 4.06298 26.048 4.00227 25.8325 3.89024L25.994 2.97557L23.7208 3.28537L19.3758 3.3353L17.2432 3.70524L18.5868 5.23368C18.2775 5.08156 18.0151 4.94948 17.7996 4.83745C17.5841 4.72543 17.3686 4.6134 17.1531 4.50137C16.9753 4.36575 16.7556 4.18237 16.4939 3.95122C16.2602 3.75192 16.0083 3.46533 15.7381 3.09148L11.811 3.91625C11.6724 3.5589 11.1798 3.39795 10.3332 3.4334C9.99453 3.44759 9.51945 3.47299 8.90793 3.5096C8.36219 3.55447 7.81155 3.62706 7.25602 3.72736L4.10545 4.43707L2.39481 4.98743C1.99743 5.33423 1.79316 5.63441 1.782 5.88799C1.83661 6.14982 1.71279 6.37511 1.41055 6.56384L1.08522 6.69302L0.478599 6.70192C0.309277 6.70901 0.149744 6.66067 0 6.55689ZM3.157 6.9529C3.40892 7.23949 3.32709 7.51253 2.91152 7.77205C2.47774 7.94429 2.16288 7.91896 1.96694 7.69606C1.74301 7.44132 1.81995 7.19599 2.19774 6.96007C2.61332 6.70055 2.93307 6.69817 3.157 6.9529ZM4.70407 7.61443C4.928 7.86917 4.83218 8.1263 4.4166 8.38581C4.00103 8.64533 3.68127 8.64771 3.45734 8.39297C3.20542 8.10639 3.28725 7.83335 3.70283 7.57383C4.11841 7.31432 4.45215 7.32785 4.70407 7.61443ZM3.88521 5.68435C4.13713 5.97093 4.07419 6.23218 3.69639 6.46811C3.22483 6.66394 2.89109 6.6504 2.69515 6.42751C2.47122 6.17277 2.56704 5.91564 2.98262 5.65613C3.36042 5.4202 3.66128 5.42961 3.88521 5.68435ZM4.80892 6.73515C5.06084 7.02173 4.9979 7.28298 4.6201 7.51891C4.14854 7.71474 3.81479 7.7012 3.61886 7.4783C3.39493 7.22357 3.49075 6.96644 3.90633 6.70692C4.28412 6.471 4.58499 6.48041 4.80892 6.73515ZM13.3014 4.61317C13.5533 4.89975 13.4903 5.161 13.1125 5.39693C12.641 5.59275 12.3072 5.57922 12.1113 5.35632C11.8874 5.10159 11.9832 4.84446 12.3988 4.58494C12.7766 4.34902 13.0774 4.35843 13.3014 4.61317ZM14.5481 3.83463C14.8 4.12121 14.7182 4.39426 14.3026 4.65377C13.831 4.8496 13.4973 4.83607 13.3014 4.61317C13.0774 4.35843 13.1733 4.10131 13.5888 3.84179C14.0044 3.58228 14.3242 3.57989 14.5481 3.83463ZM24.1806 4.10799L23.9392 4.3327L23.6412 4.59279L22.5519 5.0511L21.3239 5.15205L21.5653 4.92735L21.9053 4.71502L22.896 4.24433L24.1806 4.10799ZM24.9428 6.07346L24.1095 6.22391L23.1502 6.23108L22.8983 5.9445L22.829 5.76582L24.9428 6.07346ZM27.5331 6.82336L26.9412 6.7491C26.9132 6.71726 26.8901 6.6577 26.8719 6.57042C26.8915 6.45956 26.9579 6.36873 27.0713 6.29796L27.5645 6.35983C27.7045 6.51905 27.7696 6.62637 27.7598 6.6818C27.75 6.73724 27.6744 6.78442 27.5331 6.82336ZM31.2568 6.86549C30.872 6.76055 30.5536 6.56479 30.3017 6.27821C30.0497 5.99163 29.9203 5.67791 29.9132 5.33705C30.0266 5.26627 30.1441 5.26685 30.2659 5.33879L30.8684 5.92433L31.3155 6.53288C31.4177 6.71568 31.3981 6.82655 31.2568 6.86549ZM32.2032 4.64687C32.4551 4.93345 32.3733 5.2065 31.9577 5.46602C31.4861 5.66185 31.1524 5.64831 30.9565 5.42541C30.7325 5.17067 30.8284 4.91355 31.2439 4.65403C31.6595 4.39452 31.9793 4.39213 32.2032 4.64687ZM38.7207 4.57199C38.9726 4.85857 38.8908 5.13162 38.4752 5.39113C38.0036 5.58696 37.6699 5.57343 37.474 5.35053C37.25 5.09579 37.3459 4.83866 37.7614 4.57915C38.177 4.31964 38.4968 4.31725 38.7207 4.57199ZM40.631 5.74654C40.8829 6.03312 40.8199 6.29437 40.4422 6.5303C39.9706 6.72613 39.6368 6.71259 39.4409 6.48969C39.217 6.23495 39.3128 5.97783 39.7284 5.71831C40.1062 5.48239 40.407 5.4918 40.631 5.74654ZM41.8777 4.968C42.1296 5.25458 42.0478 5.52763 41.6322 5.78714C41.1607 5.98297 40.8269 5.96944 40.631 5.74654C40.407 5.4918 40.5029 5.23467 40.9184 4.97516C41.334 4.71565 41.6538 4.71326 41.8777 4.968ZM42.0392 4.05333C42.2911 4.33991 42.2093 4.61296 41.7937 4.87247C41.3222 5.0683 40.9884 5.05477 40.7925 4.83187C40.5685 4.57713 40.6644 4.32 41.0799 4.06049C41.4955 3.80098 41.8153 3.79859 42.0392 4.05333ZM43.5296 4.75025L45.0682 4.60327L44.9402 4.7572L44.6148 4.88637L43.5296 4.75025ZM47.4715 3.84232C47.4057 3.83406 47.3211 3.83761 47.2175 3.85295C47.114 3.86829 47.0153 3.85592 46.9215 3.81583C46.9313 3.76039 46.9271 3.68904 46.9089 3.60176C46.9285 3.49089 46.9761 3.41186 47.0516 3.36468C47.1845 3.18303 47.349 3.20366 47.5449 3.42655C47.7408 3.64945 47.7164 3.78804 47.4715 3.84232Z" fill="#000002"/>
</svg>
